<mxfile host="app.diagrams.net" modified="2023-09-15T03:59:29.415Z" agent="Mozilla/5.0 (Windows NT 10.0; Win64; x64) AppleWebKit/537.36 (KHTML, like Gecko) Chrome/114.0.0.0 Safari/537.36 OPR/100.0.0.0" etag="uclhlmwcW0ehXM6N1I7U" version="21.7.5" type="google">
  <diagram name="Page-1" id="UMyFpYF1JPYJKU0Iy_mo">
    <mxGraphModel grid="1" page="1" gridSize="10" guides="1" tooltips="1" connect="1" arrows="1" fold="1" pageScale="1" pageWidth="1700" pageHeight="1100" math="0" shadow="0">
      <root>
        <mxCell id="0" />
        <mxCell id="1" parent="0" />
        <mxCell id="4AX6IPo74nrds4-1M8ow-5" style="edgeStyle=orthogonalEdgeStyle;rounded=0;orthogonalLoop=1;jettySize=auto;html=1;entryX=0.5;entryY=1;entryDx=0;entryDy=0;exitX=0.5;exitY=0;exitDx=0;exitDy=0;" edge="1" parent="1" source="4AX6IPo74nrds4-1M8ow-1" target="4AX6IPo74nrds4-1M8ow-2">
          <mxGeometry relative="1" as="geometry" />
        </mxCell>
        <mxCell id="4AX6IPo74nrds4-1M8ow-6" style="edgeStyle=orthogonalEdgeStyle;rounded=0;orthogonalLoop=1;jettySize=auto;html=1;exitX=0.5;exitY=0;exitDx=0;exitDy=0;entryX=0.5;entryY=1;entryDx=0;entryDy=0;" edge="1" parent="1" source="4AX6IPo74nrds4-1M8ow-1" target="4AX6IPo74nrds4-1M8ow-3">
          <mxGeometry relative="1" as="geometry">
            <Array as="points">
              <mxPoint x="595" y="265" />
              <mxPoint x="450" y="265" />
              <mxPoint x="450" y="210" />
            </Array>
          </mxGeometry>
        </mxCell>
        <mxCell id="4AX6IPo74nrds4-1M8ow-15" style="edgeStyle=orthogonalEdgeStyle;rounded=0;orthogonalLoop=1;jettySize=auto;html=1;exitX=0;exitY=0.5;exitDx=0;exitDy=0;entryX=1;entryY=0.5;entryDx=0;entryDy=0;" edge="1" parent="1" source="4AX6IPo74nrds4-1M8ow-1" target="4AX6IPo74nrds4-1M8ow-7">
          <mxGeometry relative="1" as="geometry">
            <Array as="points">
              <mxPoint x="370" y="350" />
              <mxPoint x="370" y="170" />
            </Array>
          </mxGeometry>
        </mxCell>
        <mxCell id="4AX6IPo74nrds4-1M8ow-16" style="edgeStyle=orthogonalEdgeStyle;rounded=0;orthogonalLoop=1;jettySize=auto;html=1;exitX=0;exitY=0.5;exitDx=0;exitDy=0;entryX=1;entryY=0.5;entryDx=0;entryDy=0;" edge="1" parent="1" source="4AX6IPo74nrds4-1M8ow-1" target="4AX6IPo74nrds4-1M8ow-11">
          <mxGeometry relative="1" as="geometry">
            <Array as="points">
              <mxPoint x="370" y="350" />
              <mxPoint x="370" y="260" />
            </Array>
          </mxGeometry>
        </mxCell>
        <mxCell id="4AX6IPo74nrds4-1M8ow-17" style="edgeStyle=orthogonalEdgeStyle;rounded=0;orthogonalLoop=1;jettySize=auto;html=1;exitX=0;exitY=0.5;exitDx=0;exitDy=0;entryX=1;entryY=0.5;entryDx=0;entryDy=0;" edge="1" parent="1" source="4AX6IPo74nrds4-1M8ow-1" target="4AX6IPo74nrds4-1M8ow-12">
          <mxGeometry relative="1" as="geometry" />
        </mxCell>
        <mxCell id="4AX6IPo74nrds4-1M8ow-18" style="edgeStyle=orthogonalEdgeStyle;rounded=0;orthogonalLoop=1;jettySize=auto;html=1;exitX=0;exitY=0.5;exitDx=0;exitDy=0;entryX=1;entryY=0.5;entryDx=0;entryDy=0;" edge="1" parent="1" source="4AX6IPo74nrds4-1M8ow-1" target="4AX6IPo74nrds4-1M8ow-13">
          <mxGeometry relative="1" as="geometry">
            <Array as="points">
              <mxPoint x="370" y="350" />
              <mxPoint x="370" y="440" />
            </Array>
          </mxGeometry>
        </mxCell>
        <mxCell id="4AX6IPo74nrds4-1M8ow-19" style="edgeStyle=orthogonalEdgeStyle;rounded=0;orthogonalLoop=1;jettySize=auto;html=1;exitX=0;exitY=0.5;exitDx=0;exitDy=0;entryX=1;entryY=0.5;entryDx=0;entryDy=0;" edge="1" parent="1" source="4AX6IPo74nrds4-1M8ow-1" target="4AX6IPo74nrds4-1M8ow-14">
          <mxGeometry relative="1" as="geometry">
            <Array as="points">
              <mxPoint x="370" y="350" />
              <mxPoint x="370" y="530" />
            </Array>
          </mxGeometry>
        </mxCell>
        <mxCell id="4AX6IPo74nrds4-1M8ow-21" value="" style="edgeStyle=orthogonalEdgeStyle;rounded=0;orthogonalLoop=1;jettySize=auto;html=1;" edge="1" parent="1" source="4AX6IPo74nrds4-1M8ow-1" target="4AX6IPo74nrds4-1M8ow-20">
          <mxGeometry relative="1" as="geometry" />
        </mxCell>
        <mxCell id="4AX6IPo74nrds4-1M8ow-29" style="edgeStyle=orthogonalEdgeStyle;rounded=0;orthogonalLoop=1;jettySize=auto;html=1;exitX=0;exitY=0.5;exitDx=0;exitDy=0;entryX=1;entryY=0.5;entryDx=0;entryDy=0;" edge="1" parent="1" source="4AX6IPo74nrds4-1M8ow-1" target="4AX6IPo74nrds4-1M8ow-28">
          <mxGeometry relative="1" as="geometry">
            <Array as="points">
              <mxPoint x="370" y="350" />
              <mxPoint x="370" y="620" />
            </Array>
          </mxGeometry>
        </mxCell>
        <mxCell id="4AX6IPo74nrds4-1M8ow-38" value="" style="edgeStyle=orthogonalEdgeStyle;rounded=0;orthogonalLoop=1;jettySize=auto;html=1;" edge="1" parent="1" source="4AX6IPo74nrds4-1M8ow-1" target="4AX6IPo74nrds4-1M8ow-37">
          <mxGeometry relative="1" as="geometry" />
        </mxCell>
        <mxCell id="4AX6IPo74nrds4-1M8ow-1" value="&lt;b&gt;&lt;font style=&quot;font-size: 32px;&quot;&gt;cars_hotwheels&lt;/font&gt;&lt;/b&gt;" style="whiteSpace=wrap;html=1;rounded=0;" vertex="1" parent="1">
          <mxGeometry x="440" y="320" width="310" height="60" as="geometry" />
        </mxCell>
        <mxCell id="4AX6IPo74nrds4-1M8ow-2" value="nombre" style="ellipse;whiteSpace=wrap;html=1;" vertex="1" parent="1">
          <mxGeometry x="680" y="130" width="120" height="80" as="geometry" />
        </mxCell>
        <mxCell id="4AX6IPo74nrds4-1M8ow-3" value="&lt;b&gt;&lt;u&gt;carro_id&lt;/u&gt;&lt;/b&gt;" style="ellipse;whiteSpace=wrap;html=1;" vertex="1" parent="1">
          <mxGeometry x="390" y="130" width="120" height="80" as="geometry" />
        </mxCell>
        <mxCell id="4AX6IPo74nrds4-1M8ow-7" value="year" style="ellipse;whiteSpace=wrap;html=1;" vertex="1" parent="1">
          <mxGeometry x="210" y="130" width="120" height="80" as="geometry" />
        </mxCell>
        <mxCell id="4AX6IPo74nrds4-1M8ow-11" value="modelo" style="ellipse;whiteSpace=wrap;html=1;" vertex="1" parent="1">
          <mxGeometry x="210" y="220" width="120" height="80" as="geometry" />
        </mxCell>
        <mxCell id="4AX6IPo74nrds4-1M8ow-12" value="coleccion" style="ellipse;whiteSpace=wrap;html=1;" vertex="1" parent="1">
          <mxGeometry x="210" y="310" width="120" height="80" as="geometry" />
        </mxCell>
        <mxCell id="4AX6IPo74nrds4-1M8ow-13" value="condicion" style="ellipse;whiteSpace=wrap;html=1;" vertex="1" parent="1">
          <mxGeometry x="210" y="400" width="120" height="80" as="geometry" />
        </mxCell>
        <mxCell id="4AX6IPo74nrds4-1M8ow-14" value="numero_serie" style="ellipse;whiteSpace=wrap;html=1;" vertex="1" parent="1">
          <mxGeometry x="210" y="490" width="120" height="80" as="geometry" />
        </mxCell>
        <mxCell id="4AX6IPo74nrds4-1M8ow-20" value="&lt;font style=&quot;font-size: 32px;&quot;&gt;pertenece&lt;/font&gt;" style="rhombus;whiteSpace=wrap;html=1;rounded=0;" vertex="1" parent="1">
          <mxGeometry x="900" y="270" width="205" height="160" as="geometry" />
        </mxCell>
        <mxCell id="4AX6IPo74nrds4-1M8ow-24" style="edgeStyle=orthogonalEdgeStyle;rounded=0;orthogonalLoop=1;jettySize=auto;html=1;exitX=0;exitY=0.5;exitDx=0;exitDy=0;entryX=1;entryY=0.5;entryDx=0;entryDy=0;" edge="1" parent="1" source="4AX6IPo74nrds4-1M8ow-22" target="4AX6IPo74nrds4-1M8ow-20">
          <mxGeometry relative="1" as="geometry" />
        </mxCell>
        <mxCell id="4AX6IPo74nrds4-1M8ow-30" style="edgeStyle=orthogonalEdgeStyle;rounded=0;orthogonalLoop=1;jettySize=auto;html=1;exitX=0.5;exitY=0;exitDx=0;exitDy=0;entryX=0.5;entryY=1;entryDx=0;entryDy=0;" edge="1" parent="1" source="4AX6IPo74nrds4-1M8ow-22" target="4AX6IPo74nrds4-1M8ow-27">
          <mxGeometry relative="1" as="geometry" />
        </mxCell>
        <mxCell id="4AX6IPo74nrds4-1M8ow-33" style="edgeStyle=orthogonalEdgeStyle;rounded=0;orthogonalLoop=1;jettySize=auto;html=1;exitX=0.5;exitY=1;exitDx=0;exitDy=0;entryX=0.5;entryY=0;entryDx=0;entryDy=0;" edge="1" parent="1" source="4AX6IPo74nrds4-1M8ow-22" target="4AX6IPo74nrds4-1M8ow-32">
          <mxGeometry relative="1" as="geometry" />
        </mxCell>
        <mxCell id="4AX6IPo74nrds4-1M8ow-34" style="edgeStyle=orthogonalEdgeStyle;rounded=0;orthogonalLoop=1;jettySize=auto;html=1;exitX=1;exitY=0.5;exitDx=0;exitDy=0;entryX=0;entryY=0.5;entryDx=0;entryDy=0;" edge="1" parent="1" source="4AX6IPo74nrds4-1M8ow-22" target="4AX6IPo74nrds4-1M8ow-31">
          <mxGeometry relative="1" as="geometry" />
        </mxCell>
        <mxCell id="4AX6IPo74nrds4-1M8ow-22" value="&lt;b&gt;&lt;font style=&quot;font-size: 32px;&quot;&gt;colecciones&lt;/font&gt;&lt;/b&gt;" style="whiteSpace=wrap;html=1;rounded=0;" vertex="1" parent="1">
          <mxGeometry x="1227.5" y="320" width="232.5" height="60" as="geometry" />
        </mxCell>
        <mxCell id="4AX6IPo74nrds4-1M8ow-25" value="&lt;font style=&quot;font-size: 20px;&quot;&gt;&lt;b&gt;M&lt;/b&gt;&lt;/font&gt;" style="text;html=1;strokeColor=none;fillColor=none;align=center;verticalAlign=middle;whiteSpace=wrap;rounded=0;" vertex="1" parent="1">
          <mxGeometry x="830" y="320" width="60" height="30" as="geometry" />
        </mxCell>
        <mxCell id="4AX6IPo74nrds4-1M8ow-26" value="&lt;font style=&quot;font-size: 20px;&quot;&gt;&lt;b&gt;1&lt;/b&gt;&lt;/font&gt;" style="text;html=1;strokeColor=none;fillColor=none;align=center;verticalAlign=middle;whiteSpace=wrap;rounded=0;" vertex="1" parent="1">
          <mxGeometry x="1105" y="320" width="60" height="30" as="geometry" />
        </mxCell>
        <mxCell id="4AX6IPo74nrds4-1M8ow-27" value="&lt;b&gt;&lt;u&gt;coleccion_id&lt;/u&gt;&lt;/b&gt;" style="ellipse;whiteSpace=wrap;html=1;" vertex="1" parent="1">
          <mxGeometry x="1283.75" y="130" width="120" height="80" as="geometry" />
        </mxCell>
        <mxCell id="4AX6IPo74nrds4-1M8ow-28" value="pais" style="ellipse;whiteSpace=wrap;html=1;" vertex="1" parent="1">
          <mxGeometry x="210" y="580" width="120" height="80" as="geometry" />
        </mxCell>
        <mxCell id="4AX6IPo74nrds4-1M8ow-31" value="nombre" style="ellipse;whiteSpace=wrap;html=1;" vertex="1" parent="1">
          <mxGeometry x="1520" y="310" width="120" height="80" as="geometry" />
        </mxCell>
        <mxCell id="4AX6IPo74nrds4-1M8ow-32" value="cantidad_carros" style="ellipse;whiteSpace=wrap;html=1;" vertex="1" parent="1">
          <mxGeometry x="1283.75" y="470" width="120" height="80" as="geometry" />
        </mxCell>
        <mxCell id="4AX6IPo74nrds4-1M8ow-41" style="edgeStyle=orthogonalEdgeStyle;rounded=0;orthogonalLoop=1;jettySize=auto;html=1;exitX=0.5;exitY=0;exitDx=0;exitDy=0;entryX=0.5;entryY=1;entryDx=0;entryDy=0;" edge="1" parent="1" source="4AX6IPo74nrds4-1M8ow-36" target="4AX6IPo74nrds4-1M8ow-37">
          <mxGeometry relative="1" as="geometry" />
        </mxCell>
        <mxCell id="4AX6IPo74nrds4-1M8ow-45" style="edgeStyle=orthogonalEdgeStyle;rounded=0;orthogonalLoop=1;jettySize=auto;html=1;exitX=0.5;exitY=1;exitDx=0;exitDy=0;entryX=0.5;entryY=0;entryDx=0;entryDy=0;" edge="1" parent="1" source="4AX6IPo74nrds4-1M8ow-36" target="4AX6IPo74nrds4-1M8ow-43">
          <mxGeometry relative="1" as="geometry" />
        </mxCell>
        <mxCell id="4AX6IPo74nrds4-1M8ow-46" style="edgeStyle=orthogonalEdgeStyle;rounded=0;orthogonalLoop=1;jettySize=auto;html=1;exitX=0.5;exitY=1;exitDx=0;exitDy=0;entryX=0.5;entryY=0;entryDx=0;entryDy=0;" edge="1" parent="1" source="4AX6IPo74nrds4-1M8ow-36" target="4AX6IPo74nrds4-1M8ow-44">
          <mxGeometry relative="1" as="geometry" />
        </mxCell>
        <mxCell id="4AX6IPo74nrds4-1M8ow-36" value="&lt;b&gt;&lt;font style=&quot;font-size: 32px;&quot;&gt;modelos&lt;br&gt;&lt;/font&gt;&lt;/b&gt;" style="whiteSpace=wrap;html=1;rounded=0;" vertex="1" parent="1">
          <mxGeometry x="498.75" y="780" width="192.5" height="60" as="geometry" />
        </mxCell>
        <mxCell id="4AX6IPo74nrds4-1M8ow-37" value="&lt;font style=&quot;font-size: 32px;&quot;&gt;tiene&lt;/font&gt;" style="rhombus;whiteSpace=wrap;html=1;rounded=0;" vertex="1" parent="1">
          <mxGeometry x="522.5" y="520" width="145" height="130" as="geometry" />
        </mxCell>
        <mxCell id="4AX6IPo74nrds4-1M8ow-39" value="&lt;font style=&quot;font-size: 20px;&quot;&gt;&lt;b&gt;M&lt;/b&gt;&lt;/font&gt;" style="text;html=1;strokeColor=none;fillColor=none;align=center;verticalAlign=middle;whiteSpace=wrap;rounded=0;" vertex="1" parent="1">
          <mxGeometry x="590" y="480" width="60" height="30" as="geometry" />
        </mxCell>
        <mxCell id="4AX6IPo74nrds4-1M8ow-42" value="&lt;font style=&quot;font-size: 20px;&quot;&gt;&lt;b&gt;1&lt;/b&gt;&lt;/font&gt;" style="text;html=1;strokeColor=none;fillColor=none;align=center;verticalAlign=middle;whiteSpace=wrap;rounded=0;" vertex="1" parent="1">
          <mxGeometry x="590" y="660" width="60" height="30" as="geometry" />
        </mxCell>
        <mxCell id="4AX6IPo74nrds4-1M8ow-43" value="nombre" style="ellipse;whiteSpace=wrap;html=1;" vertex="1" parent="1">
          <mxGeometry x="680" y="920" width="120" height="80" as="geometry" />
        </mxCell>
        <mxCell id="4AX6IPo74nrds4-1M8ow-44" value="&lt;b&gt;&lt;u&gt;modelo_id&lt;/u&gt;&lt;/b&gt;" style="ellipse;whiteSpace=wrap;html=1;" vertex="1" parent="1">
          <mxGeometry x="390" y="920" width="120" height="80" as="geometry" />
        </mxCell>
      </root>
    </mxGraphModel>
  </diagram>
</mxfile>
